<svg width="1200" height="630" viewBox="0 0 1200 630" xmlns="http://www.w3.org/2000/svg">
  <defs>
    <linearGradient id="bg" x1="0%" y1="0%" x2="100%" y2="100%">
      <stop offset="0%" style="stop-color:#0c1821;stop-opacity:1" />
      <stop offset="100%" style="stop-color:#1a2332;stop-opacity:1" />
    </linearGradient>
    <linearGradient id="kafka" x1="0%" y1="0%" x2="100%" y2="100%">
      <stop offset="0%" style="stop-color:#231f20;stop-opacity:1" />
      <stop offset="100%" style="stop-color:#000000;stop-opacity:1" />
    </linearGradient>
    <filter id="glow">
      <fegaussianblur stdDeviation="2" result="coloredBlur"/>
      <femerge> 
        <femergenode in="coloredBlur"/>
        <femergenode in="SourceGraphic"/>
      </femerge>
    </filter>
  </defs>
  
  <!-- Background -->
  <rect width="1200" height="630" fill="url(#bg)" />
  
  <!-- Title -->
  <text x="60" y="80" fill="#f8fafc" font-family="Arial" font-size="32" font-weight="bold">Event-Driven Microservices Platform</text>
  <text x="60" y="110" fill="#94a3b8" font-family="Arial" font-size="16">Scalable architecture with Apache Kafka &amp; Node.js</text>
  
  <!-- Architecture diagram -->
  <!-- Event Sources -->
  <g id="eventSources">
    <rect x="80" y="180" width="120" height="60" rx="8" fill="#3b82f6" />
    <text x="125" y="200" fill="white" font-family="Arial" font-size="12" font-weight="bold">User Events</text>
    <text x="135" y="215" fill="white" font-family="Arial" font-size="10">API Gateway</text>
    <text x="130" y="230" fill="white" font-family="Arial" font-size="10">Web/Mobile</text>
    
    <rect x="80" y="260" width="120" height="60" rx="8" fill="#10b981" />
    <text x="120" y="280" fill="white" font-family="Arial" font-size="12" font-weight="bold">System Events</text>
    <text x="125" y="295" fill="white" font-family="Arial" font-size="10">Schedules</text>
    <text x="130" y="310" fill="white" font-family="Arial" font-size="10">Triggers</text>
    
    <rect x="80" y="340" width="120" height="60" rx="8" fill="#8b5cf6" />
    <text x="115" y="360" fill="white" font-family="Arial" font-size="12" font-weight="bold">External APIs</text>
    <text x="125" y="375" fill="white" font-family="Arial" font-size="10">Webhooks</text>
    <text x="130" y="390" fill="white" font-family="Arial" font-size="10">Partners</text>
  </g>
  
  <!-- Kafka Event Bus -->
  <rect x="280" y="220" width="160" height="200" rx="12" fill="url(#kafka)" stroke="#f59e0b" stroke-width="2" />
  <text x="340" y="250" fill="#f59e0b" font-family="Arial" font-size="18" font-weight="bold">Apache Kafka</text>
  <text x="325" y="275" fill="white" font-family="Arial" font-size="12">Event Streaming</text>
  
  <!-- Topics -->
  <rect x="295" y="290" width="130" height="25" rx="4" fill="#374151" />
  <text x="305" y="307" fill="#fbbf24" font-family="Arial" font-size="10">user.events</text>
  
  <rect x="295" y="320" width="130" height="25" rx="4" fill="#374151" />
  <text x="305" y="337" fill="#fbbf24" font-family="Arial" font-size="10">order.events</text>
  
  <rect x="295" y="350" width="130" height="25" rx="4" fill="#374151" />
  <text x="305" y="367" fill="#fbbf24" font-family="Arial" font-size="10">payment.events</text>
  
  <rect x="295" y="380" width="130" height="25" rx="4" fill="#374151" />
  <text x="305" y="397" fill="#fbbf24" font-family="Arial" font-size="10">inventory.events</text>
  
  <!-- Microservices -->
  <g id="microservices">
    <!-- User Service -->
    <rect x="520" y="160" width="100" height="80" rx="8" fill="#0ea5e9" />
    <text x="555" y="185" fill="white" font-family="Arial" font-size="12" font-weight="bold">User</text>
    <text x="548" y="200" fill="white" font-family="Arial" font-size="12" font-weight="bold">Service</text>
    <text x="545" y="220" fill="#bfdbfe" font-family="Arial" font-size="10">Node.js</text>
    <text x="550" y="233" fill="#bfdbfe" font-family="Arial" font-size="10">MongoDB</text>
    
    <!-- Order Service -->
    <rect x="640" y="160" width="100" height="80" rx="8" fill="#dc2626" />
    <text x="670" y="185" fill="white" font-family="Arial" font-size="12" font-weight="bold">Order</text>
    <text x="665" y="200" fill="white" font-family="Arial" font-size="12" font-weight="bold">Service</text>
    <text x="665" y="220" fill="#fecaca" font-family="Arial" font-size="10">Node.js</text>
    <text x="660" y="233" fill="#fecaca" font-family="Arial" font-size="10">PostgreSQL</text>
    
    <!-- Payment Service -->
    <rect x="760" y="160" width="100" height="80" rx="8" fill="#059669" />
    <text x="785" y="185" fill="white" font-family="Arial" font-size="12" font-weight="bold">Payment</text>
    <text x="785" y="200" fill="white" font-family="Arial" font-size="12" font-weight="bold">Service</text>
    <text x="785" y="220" fill="#bbf7d0" font-family="Arial" font-size="10">Node.js</text>
    <text x="790" y="233" fill="#bbf7d0" font-family="Arial" font-size="10">Redis</text>
    
    <!-- Inventory Service -->
    <rect x="520" y="260" width="100" height="80" rx="8" fill="#7c3aed" />
    <text x="545" y="285" fill="white" font-family="Arial" font-size="12" font-weight="bold">Inventory</text>
    <text x="545" y="300" fill="white" font-family="Arial" font-size="12" font-weight="bold">Service</text>
    <text x="545" y="320" fill="#ddd6fe" font-family="Arial" font-size="10">Node.js</text>
    <text x="550" y="333" fill="#ddd6fe" font-family="Arial" font-size="10">PostgreSQL</text>
    
    <!-- Notification Service -->
    <rect x="640" y="260" width="100" height="80" rx="8" fill="#ea580c" />
    <text x="655" y="285" fill="white" font-family="Arial" font-size="12" font-weight="bold">Notification</text>
    <text x="665" y="300" fill="white" font-family="Arial" font-size="12" font-weight="bold">Service</text>
    <text x="665" y="320" fill="#fed7aa" font-family="Arial" font-size="10">Node.js</text>
    <text x="675" y="333" fill="#fed7aa" font-family="Arial" font-size="10">Email/SMS</text>
    
    <!-- Analytics Service -->
    <rect x="760" y="260" width="100" height="80" rx="8" fill="#0891b2" />
    <text x="785" y="285" fill="white" font-family="Arial" font-size="12" font-weight="bold">Analytics</text>
    <text x="785" y="300" fill="white" font-family="Arial" font-size="12" font-weight="bold">Service</text>
    <text x="785" y="320" fill="#a7f3d0" font-family="Arial" font-size="10">Node.js</text>
    <text x="785" y="333" fill="#a7f3d0" font-family="Arial" font-size="10">ClickHouse</text>
  </g>
  
  <!-- Data Stores -->
  <g id="dataStores">
    <rect x="520" y="380" width="100" height="50" rx="6" fill="#1f2937" stroke="#6b7280" stroke-width="1" />
    <text x="555" y="400" fill="#f9fafb" font-family="Arial" font-size="11">MongoDB</text>
    <text x="555" y="415" fill="#9ca3af" font-family="Arial" font-size="9">User Data</text>
    
    <rect x="640" y="380" width="100" height="50" rx="6" fill="#1e40af" stroke="#3b82f6" stroke-width="1" />
    <text x="665" y="400" fill="#f9fafb" font-family="Arial" font-size="11">PostgreSQL</text>
    <text x="670" y="415" fill="#dbeafe" font-family="Arial" font-size="9">Orders</text>
    
    <rect x="760" y="380" width="100" height="50" rx="6" fill="#dc2626" stroke="#ef4444" stroke-width="1" />
    <text x="800" y="400" fill="#f9fafb" font-family="Arial" font-size="11">Redis</text>
    <text x="790" y="415" fill="#fecaca" font-family="Arial" font-size="9">Cache</text>
  </g>
  
  <!-- CQRS Pattern -->
  <rect x="920" y="180" width="220" height="120" rx="8" fill="#1e293b" stroke="#475569" stroke-width="1" />
  <text x="970" y="205" fill="#f1f5f9" font-family="Arial" font-size="14" font-weight="bold">CQRS + Event Sourcing</text>
  
  <rect x="940" y="220" width="80" height="30" rx="4" fill="#3b82f6" />
  <text x="965" y="240" fill="white" font-family="Arial" font-size="10">Commands</text>
  
  <rect x="1040" y="220" width="80" height="30" rx="4" fill="#10b981" />
  <text x="1070" y="240" fill="white" font-family="Arial" font-size="10">Queries</text>
  
  <rect x="940" y="260" width="180" height="25" rx="4" fill="#374151" />
  <text x="950" y="277" fill="#fbbf24" font-family="Arial" font-size="10">Event Store (Append-Only)</text>
  
  <!-- Saga Orchestration -->
  <rect x="920" y="320" width="220" height="80" rx="8" fill="#1e293b" stroke="#475569" stroke-width="1" />
  <text x="980" y="345" fill="#f1f5f9" font-family="Arial" font-size="14" font-weight="bold">Saga Orchestration</text>
  
  <text x="940" y="365" fill="#94a3b8" font-family="Arial" font-size="10">• Distributed Transactions</text>
  <text x="940" y="380" fill="#94a3b8" font-family="Arial" font-size="10">• Compensation Actions</text>
  <text x="940" y="395" fill="#94a3b8" font-family="Arial" font-size="10">• State Management</text>
  
  <!-- Event Flow Arrows -->
  <defs>
    <marker id="arrowhead" markerWidth="10" markerHeight="7" 
            refX="9" refY="3.5" orient="auto">
      <polygon points="0 0, 10 3.5, 0 7" fill="#fbbf24" />
    </marker>
  </defs>
  
  <!-- Arrows from sources to Kafka -->
  <line x1="200" y1="210" x2="280" y2="270" stroke="#fbbf24" stroke-width="2" marker-end="url(#arrowhead)" />
  <line x1="200" y1="290" x2="280" y2="320" stroke="#fbbf24" stroke-width="2" marker-end="url(#arrowhead)" />
  <line x1="200" y1="370" x2="280" y2="370" stroke="#fbbf24" stroke-width="2" marker-end="url(#arrowhead)" />
  
  <!-- Arrows from Kafka to services -->
  <line x1="440" y1="270" x2="520" y2="200" stroke="#fbbf24" stroke-width="2" marker-end="url(#arrowhead)" />
  <line x1="440" y1="290" x2="640" y2="200" stroke="#fbbf24" stroke-width="2" marker-end="url(#arrowhead)" />
  <line x1="440" y1="310" x2="760" y2="200" stroke="#fbbf24" stroke-width="2" marker-end="url(#arrowhead)" />
  <line x1="440" y1="330" x2="520" y2="300" stroke="#fbbf24" stroke-width="2" marker-end="url(#arrowhead)" />
  <line x1="440" y1="350" x2="640" y2="300" stroke="#fbbf24" stroke-width="2" marker-end="url(#arrowhead)" />
  <line x1="440" y1="370" x2="760" y2="300" stroke="#fbbf24" stroke-width="2" marker-end="url(#arrowhead)" />
  
  <!-- Key Features -->
  <rect x="60" y="480" width="1080" height="120" rx="8" fill="#0f172a" stroke="#1e293b" stroke-width="1" />
  <text x="80" y="510" fill="#f8fafc" font-family="Arial" font-size="16" font-weight="bold">Key Features</text>
  
  <g font-family="Arial" font-size="12" fill="#94a3b8">
    <text x="80" y="535">• Event Sourcing with CQRS patterns</text>
    <text x="320" y="535">• Saga orchestration for distributed transactions</text>
    <text x="680" y="535">• Auto-scaling based on event volume</text>
    
    <text x="80" y="555">• Circuit breakers and retry mechanisms</text>
    <text x="320" y="555">• Multi-tenant architecture</text>
    <text x="680" y="555">• Comprehensive monitoring & alerting</text>
    
    <text x="80" y="575">• Blue-green deployment support</text>
    <text x="320" y="575">• Event replay and reprocessing</text>
    <text x="680" y="575">• 99.9% uptime SLA</text>
  </g>
</svg>