<svg width="1200" height="630" viewBox="0 0 1200 630" xmlns="http://www.w3.org/2000/svg">
  <defs>
    <linearGradient id="bg" x1="0%" y1="0%" x2="100%" y2="100%">
      <stop offset="0%" style="stop-color:#0f172a;stop-opacity:1" />
      <stop offset="100%" style="stop-color:#1e293b;stop-opacity:1" />
    </linearGradient>
    <linearGradient id="codeBlock" x1="0%" y1="0%" x2="100%" y2="100%">
      <stop offset="0%" style="stop-color:#1e293b;stop-opacity:1" />
      <stop offset="100%" style="stop-color:#334155;stop-opacity:1" />
    </linearGradient>
    <filter id="glow">
      <fegaussianblur stdDeviation="3" result="coloredBlur"/>
      <femerge> 
        <femergenode in="coloredBlur"/>
        <femergenode in="SourceGraphic"/>
      </femerge>
    </filter>
  </defs>
  
  <!-- Background -->
  <rect width="1200" height="630" fill="url(#bg)" />
  
  <!-- Title -->
  <text x="60" y="80" fill="#f1f5f9" font-family="monospace" font-size="36" font-weight="bold">MCP TypeScript Toolkit</text>
  <text x="60" y="120" fill="#94a3b8" font-family="monospace" font-size="18">Type-safe MCP server development with code generation</text>
  
  <!-- VS Code-like interface -->
  <rect x="60" y="160" width="1080" height="420" rx="8" fill="url(#codeBlock)" stroke="#475569" stroke-width="1" />
  
  <!-- Window controls -->
  <circle cx="88" cy="188" r="6" fill="#ef4444" />
  <circle cx="108" cy="188" r="6" fill="#f59e0b" />
  <circle cx="128" cy="188" r="6" fill="#10b981" />
  
  <!-- File tabs -->
  <rect x="160" y="170" width="120" height="30" fill="#334155" />
  <text x="170" y="190" fill="#f1f5f9" font-family="monospace" font-size="12">server.ts</text>
  <rect x="280" y="170" width="120" height="30" fill="#1e293b" />
  <text x="290" y="190" fill="#94a3b8" font-family="monospace" font-size="12">types.ts</text>
  
  <!-- Code content -->
  <g font-family="monospace" font-size="14">
    <!-- Line numbers -->
    <text x="80" y="230" fill="#64748b" font-size="12">1</text>
    <text x="80" y="250" fill="#64748b" font-size="12">2</text>
    <text x="80" y="270" fill="#64748b" font-size="12">3</text>
    <text x="80" y="290" fill="#64748b" font-size="12">4</text>
    <text x="80" y="310" fill="#64748b" font-size="12">5</text>
    <text x="80" y="330" fill="#64748b" font-size="12">6</text>
    <text x="80" y="350" fill="#64748b" font-size="12">7</text>
    <text x="80" y="370" fill="#64748b" font-size="12">8</text>
    <text x="80" y="390" fill="#64748b" font-size="12">9</text>
    <text x="80" y="410" fill="#64748b" font-size="12">10</text>
    <text x="80" y="430" fill="#64748b" font-size="12">11</text>
    <text x="80" y="450" fill="#64748b" font-size="12">12</text>
    <text x="80" y="470" fill="#64748b" font-size="12">13</text>
    <text x="80" y="490" fill="#64748b" font-size="12">14</text>
    <text x="80" y="510" fill="#64748b" font-size="12">15</text>
    <text x="80" y="530" fill="#64748b" font-size="12">16</text>
    
    <!-- Code lines -->
    <text x="110" y="230" fill="#7dd3fc">import</text>
    <text x="160" y="230" fill="#f1f5f9">{ MCPServer, Tool } </text>
    <text x="320" y="230" fill="#7dd3fc">from</text>
    <text x="365" y="230" fill="#fbbf24">'@mcp/typescript-toolkit'</text>
    
    <text x="110" y="250" fill="#7dd3fc">import</text>
    <text x="160" y="250" fill="#f1f5f9">{ z } </text>
    <text x="200" y="250" fill="#7dd3fc">from</text>
    <text x="245" y="250" fill="#fbbf24">'zod'</text>
    
    <text x="110" y="290" fill="#7dd3fc">const</text>
    <text x="160" y="290" fill="#a78bfa">FileTool</text>
    <text x="230" y="290" fill="#f1f5f9">= Tool.</text>
    <text x="310" y="290" fill="#fbbf24">define</text>
    <text x="360" y="290" fill="#f1f5f9">({</text>
    
    <text x="120" y="310" fill="#f1f5f9">name: </text>
    <text x="170" y="310" fill="#fbbf24">'read_file'</text>
    <text x="250" y="310" fill="#f1f5f9">,</text>
    
    <text x="120" y="330" fill="#f1f5f9">inputSchema: z.</text>
    <text x="240" y="330" fill="#fbbf24">object</text>
    <text x="290" y="330" fill="#f1f5f9">({</text>
    
    <text x="130" y="350" fill="#f1f5f9">path: z.</text>
    <text x="190" y="350" fill="#fbbf24">string</text>
    <text x="240" y="350" fill="#f1f5f9">(),</text>
    
    <text x="130" y="370" fill="#f1f5f9">encoding: z.</text>
    <text x="220" y="370" fill="#fbbf24">enum</text>
    <text x="260" y="370" fill="#f1f5f9">([</text>
    <text x="290" y="370" fill="#fbbf24">'utf8'</text>
    <text x="340" y="370" fill="#f1f5f9">, </text>
    <text x="360" y="370" fill="#fbbf24">'base64'</text>
    <text x="420" y="370" fill="#f1f5f9">])</text>
    
    <text x="120" y="390" fill="#f1f5f9">}),</text>
    
    <text x="120" y="410" fill="#f1f5f9">outputSchema: z.</text>
    <text x="240" y="410" fill="#fbbf24">object</text>
    <text x="290" y="410" fill="#f1f5f9">({</text>
    
    <text x="130" y="430" fill="#f1f5f9">content: z.</text>
    <text x="210" y="430" fill="#fbbf24">string</text>
    <text x="260" y="430" fill="#f1f5f9">(),</text>
    
    <text x="130" y="450" fill="#f1f5f9">size: z.</text>
    <text x="180" y="450" fill="#fbbf24">number</text>
    <text x="230" y="450" fill="#f1f5f9">()</text>
    
    <text x="120" y="470" fill="#f1f5f9">})</text>
    
    <text x="110" y="490" fill="#f1f5f9">})</text>
    
    <text x="110" y="530" fill="#7dd3fc">const</text>
    <text x="160" y="530" fill="#a78bfa">server</text>
    <text x="210" y="530" fill="#f1f5f9">= </text>
    <text x="230" y="530" fill="#7dd3fc">new</text>
    <text x="270" y="530" fill="#a78bfa">MCPServer</text>
    <text x="360" y="530" fill="#f1f5f9">({ tools: [FileTool] })</text>
  </g>
  
  <!-- TypeScript logo -->
  <g transform="translate(950, 200)">
    <rect x="0" y="0" width="80" height="80" rx="8" fill="#3178c6" />
    <text x="15" y="55" fill="white" font-family="Arial" font-size="48" font-weight="bold">TS</text>
  </g>
  
  <!-- MCP Protocol badge -->
  <rect x="950" y="300" width="160" height="40" rx="20" fill="#10b981" />
  <text x="970" y="325" fill="white" font-family="Arial" font-size="14" font-weight="bold">MCP Protocol</text>
  
  <!-- Type Safety badge -->
  <rect x="950" y="360" width="140" height="40" rx="20" fill="#8b5cf6" />
  <text x="970" y="385" fill="white" font-family="Arial" font-size="14" font-weight="bold">Type Safety</text>
  
  <!-- Code Generation badge -->
  <rect x="950" y="420" width="160" height="40" rx="20" fill="#f59e0b" />
  <text x="970" y="445" fill="white" font-family="Arial" font-size="14" font-weight="bold">Code Generation</text>
  
  <!-- Glow effects -->
  <rect x="950" y="300" width="160" height="40" rx="20" fill="none" stroke="#10b981" stroke-width="1" opacity="0.5" filter="url(#glow)" />
</svg>