<svg width="1200" height="630" viewBox="0 0 1200 630" xmlns="http://www.w3.org/2000/svg">
  <defs>
    <linearGradient id="bg" x1="0%" y1="0%" x2="100%" y2="100%">
      <stop offset="0%" style="stop-color:#1e3a8a;stop-opacity:1" />
      <stop offset="100%" style="stop-color:#1e40af;stop-opacity:1" />
    </linearGradient>
    <linearGradient id="python" x1="0%" y1="0%" x2="100%" y2="100%">
      <stop offset="0%" style="stop-color:#3776ab;stop-opacity:1" />
      <stop offset="100%" style="stop-color:#ffd43b;stop-opacity:1" />
    </linearGradient>
    <filter id="glow">
      <fegaussianblur stdDeviation="2" result="coloredBlur"/>
      <femerge> 
        <femergenode in="coloredBlur"/>
        <femergenode in="SourceGraphic"/>
      </femerge>
    </filter>
  </defs>
  
  <!-- Background -->
  <rect width="1200" height="630" fill="url(#bg)" />
  
  <!-- Title -->
  <text x="60" y="80" fill="#f8fafc" font-family="Arial" font-size="32" font-weight="bold">Python Automation Suite</text>
  <text x="60" y="110" fill="#bfdbfe" font-family="Arial" font-size="16">50+ pre-built modules • 80% manual work reduction • Visual workflow designer</text>
  
  <!-- Python Logo -->
  <g transform="translate(1000, 60)">
    <rect x="0" y="0" width="80" height="80" rx="12" fill="url(#python)" />
    <text x="20" y="55" fill="white" font-family="Arial" font-size="40" font-weight="bold">🐍</text>
  </g>
  
  <!-- Dashboard Interface -->
  <rect x="60" y="140" width="520" height="340" rx="12" fill="#1e40af" stroke="#3b82f6" stroke-width="2" />
  <text x="80" y="170" fill="#f8fafc" font-family="Arial" font-size="18" font-weight="bold">Automation Dashboard</text>
  
  <!-- Dashboard Header -->
  <rect x="80" y="185" width="480" height="40" rx="6" fill="#1e3a8a" />
  <text x="100" y="200" fill="#bfdbfe" font-family="Arial" font-size="12">Active Workflows</text>
  <text x="250" y="200" fill="#bfdbfe" font-family="Arial" font-size="12">Status</text>
  <text x="350" y="200" fill="#bfdbfe" font-family="Arial" font-size="12">Last Run</text>
  <text x="450" y="200" fill="#bfdbfe" font-family="Arial" font-size="12">Actions</text>
  
  <text x="100" y="215" fill="#10b981" font-family="Arial" font-size="10">●</text>
  <text x="115" y="215" fill="#f8fafc" font-family="Arial" font-size="10">15 workflows running</text>
  
  <!-- Workflow Items -->
  <g font-family="Arial" font-size="11">
    <rect x="80" y="235" width="480" height="25" rx="3" fill="#1e40af" stroke="#3b82f6" stroke-width="1" />
    <text x="100" y="250" fill="#f8fafc">Email Report Generator</text>
    <text x="250" y="250" fill="#10b981">●</text>
    <text x="265" y="250" fill="#10b981">Running</text>
    <text x="350" y="250" fill="#bfdbfe">2 min ago</text>
    <text x="450" y="250" fill="#3b82f6">[Edit] [Stop]</text>
    
    <rect x="80" y="265" width="480" height="25" rx="3" fill="#1e40af" stroke="#3b82f6" stroke-width="1" />
    <text x="100" y="280" fill="#f8fafc">Invoice Processing</text>
    <text x="250" y="280" fill="#10b981">●</text>
    <text x="265" y="280" fill="#10b981">Running</text>
    <text x="350" y="280" fill="#bfdbfe">5 min ago</text>
    <text x="450" y="280" fill="#3b82f6">[Edit] [Stop]</text>
    
    <rect x="80" y="295" width="480" height="25" rx="3" fill="#1e40af" stroke="#3b82f6" stroke-width="1" />
    <text x="100" y="310" fill="#f8fafc">Data Sync to CRM</text>
    <text x="250" y="310" fill="#fbbf24">●</text>
    <text x="265" y="310" fill="#fbbf24">Scheduled</text>
    <text x="350" y="310" fill="#bfdbfe">Next: 10:00 AM</text>
    <text x="450" y="310" fill="#3b82f6">[Edit] [Run]</text>
    
    <rect x="80" y="325" width="480" height="25" rx="3" fill="#1e40af" stroke="#3b82f6" stroke-width="1" />
    <text x="100" y="340" fill="#f8fafc">Website Health Check</text>
    <text x="250" y="340" fill="#10b981">●</text>
    <text x="265" y="340" fill="#10b981">Running</text>
    <text x="350" y="340" fill="#bfdbfe">1 min ago</text>
    <text x="450" y="340" fill="#3b82f6">[Edit] [Stop]</text>
    
    <rect x="80" y="355" width="480" height="25" rx="3" fill="#1e40af" stroke="#3b82f6" stroke-width="1" />
    <text x="100" y="370" fill="#f8fafc">Database Backup</text>
    <text x="250" y="370" fill="#10b981">●</text>
    <text x="265" y="370" fill="#10b981">Completed</text>
    <text x="350" y="370" fill="#bfdbfe">3:00 AM</text>
    <text x="450" y="370" fill="#3b82f6">[View] [Edit]</text>
  </g>
  
  <!-- Performance Stats -->
  <rect x="80" y="395" width="480" height="70" rx="6" fill="#1e3a8a" />
  <text x="100" y="415" fill="#bfdbfe" font-family="Arial" font-size="14" font-weight="bold">Performance Today</text>
  
  <g font-family="Arial" font-size="12" fill="#f8fafc">
    <text x="100" y="435">Tasks Executed: </text>
    <text x="210" y="435" fill="#10b981" font-weight="bold">1,247</text>
    <text x="280" y="435">Success Rate: </text>
    <text x="370" y="435" fill="#10b981" font-weight="bold">99.8%</text>
    
    <text x="100" y="450">Time Saved: </text>
    <text x="180" y="450" fill="#fbbf24" font-weight="bold">32.4 hours</text>
    <text x="280" y="450">Errors: </text>
    <text x="325" y="450" fill="#ef4444" font-weight="bold">3</text>
    <text x="350" y="450">(all resolved)</text>
  </g>
  
  <!-- Automation Modules -->
  <text x="620" y="170" fill="#f8fafc" font-family="Arial" font-size="18" font-weight="bold">Automation Modules</text>
  
  <g id="modules">
    <!-- Web Scraping -->
    <rect x="620" y="190" width="140" height="70" rx="8" fill="#0ea5e9" />
    <text x="670" y="210" fill="white" font-family="Arial" font-size="12" font-weight="bold">Web Scraping</text>
    <text x="630" y="225" fill="#bae6fd" font-family="Arial" font-size="10">• Beautiful Soup</text>
    <text x="630" y="238" fill="#bae6fd" font-family="Arial" font-size="10">• Selenium</text>
    <text x="630" y="251" fill="#bae6fd" font-family="Arial" font-size="10">• Anti-detection</text>
    
    <!-- API Integration -->
    <rect x="780" y="190" width="140" height="70" rx="8" fill="#10b981" />
    <text x="820" y="210" fill="white" font-family="Arial" font-size="12" font-weight="bold">API Integration</text>
    <text x="790" y="225" fill="#d1fae5" font-family="Arial" font-size="10">• REST APIs</text>
    <text x="790" y="238" fill="#d1fae5" font-family="Arial" font-size="10">• GraphQL</text>
    <text x="790" y="251" fill="#d1fae5" font-family="Arial" font-size="10">• Rate limiting</text>
    
    <!-- File Processing -->
    <rect x="940" y="190" width="140" height="70" rx="8" fill="#8b5cf6" />
    <text x="980" y="210" fill="white" font-family="Arial" font-size="12" font-weight="bold">File Processing</text>
    <text x="950" y="225" fill="#ede9fe" font-family="Arial" font-size="10">• CSV/Excel</text>
    <text x="950" y="238" fill="#ede9fe" font-family="Arial" font-size="10">• PDF parsing</text>
    <text x="950" y="251" fill="#ede9fe" font-family="Arial" font-size="10">• Image OCR</text>
    
    <!-- Email Automation -->
    <rect x="620" y="280" width="140" height="70" rx="8" fill="#f59e0b" />
    <text x="655" y="300" fill="white" font-family="Arial" font-size="12" font-weight="bold">Email Automation</text>
    <text x="630" y="315" fill="#fef3c7" font-family="Arial" font-size="10">• SMTP/IMAP</text>
    <text x="630" y="328" fill="#fef3c7" font-family="Arial" font-size="10">• Templates</text>
    <text x="630" y="341" fill="#fef3c7" font-family="Arial" font-size="10">• Attachments</text>
    
    <!-- Database Ops -->
    <rect x="780" y="280" width="140" height="70" rx="8" fill="#dc2626" />
    <text x="815" y="300" fill="white" font-family="Arial" font-size="12" font-weight="bold">Database Ops</text>
    <text x="790" y="315" fill="#fecaca" font-family="Arial" font-size="10">• SQL queries</text>
    <text x="790" y="328" fill="#fecaca" font-family="Arial" font-size="10">• Data migration</text>
    <text x="790" y="341" fill="#fecaca" font-family="Arial" font-size="10">• Backups</text>
    
    <!-- Cloud Services -->
    <rect x="940" y="280" width="140" height="70" rx="8" fill="#0891b2" />
    <text x="975" y="300" fill="white" font-family="Arial" font-size="12" font-weight="bold">Cloud Services</text>
    <text x="950" y="315" fill="#a7f3d0" font-family="Arial" font-size="10">• AWS/Azure</text>
    <text x="950" y="328" fill="#a7f3d0" font-family="Arial" font-size="10">• File sync</text>
    <text x="950" y="341" fill="#a7f3d0" font-family="Arial" font-size="10">• Deployment</text>
  </g>
  
  <!-- Visual Workflow Builder -->
  <rect x="620" y="370" width="460" height="110" rx="8" fill="#1e293b" stroke="#475569" stroke-width="1" />
  <text x="640" y="395" fill="#f1f5f9" font-family="Arial" font-size="16" font-weight="bold">Visual Workflow Builder</text>
  
  <!-- Workflow nodes -->
  <g>
    <!-- Start node -->
    <circle cx="660" cy="425" r="15" fill="#10b981" />
    <text x="655" y="430" fill="white" font-family="Arial" font-size="10">▶</text>
    
    <!-- Process nodes -->
    <rect x="700" y="410" width="60" height="30" rx="4" fill="#3b82f6" />
    <text x="715" y="430" fill="white" font-family="Arial" font-size="9">Scrape Data</text>
    
    <rect x="780" y="410" width="60" height="30" rx="4" fill="#8b5cf6" />
    <text x="795" y="430" fill="white" font-family="Arial" font-size="9">Process CSV</text>
    
    <rect x="860" y="410" width="60" height="30" rx="4" fill="#f59e0b" />
    <text x="880" y="430" fill="white" font-family="Arial" font-size="9">Send Email</text>
    
    <!-- Decision node -->
    <polygon points="950,425 965,410 980,425 965,440" fill="#dc2626" />
    <text x="960" y="430" fill="white" font-family="Arial" font-size="8">?</text>
    
    <!-- End node -->
    <circle cx="1020" cy="425" r="15" fill="#6b7280" />
    <text x="1015" y="430" fill="white" font-family="Arial" font-size="10">◼</text>
  </g>
  
  <!-- Connecting arrows -->
  <defs>
    <marker id="arrowSmall" markerWidth="8" markerHeight="6" 
            refX="7" refY="3" orient="auto">
      <polygon points="0 0, 8 3, 0 6" fill="#94a3b8" />
    </marker>
  </defs>
  
  <line x1="675" y1="425" x2="700" y2="425" stroke="#94a3b8" stroke-width="2" marker-end="url(#arrowSmall)" />
  <line x1="760" y1="425" x2="780" y2="425" stroke="#94a3b8" stroke-width="2" marker-end="url(#arrowSmall)" />
  <line x1="840" y1="425" x2="860" y2="425" stroke="#94a3b8" stroke-width="2" marker-end="url(#arrowSmall)" />
  <line x1="920" y1="425" x2="950" y2="425" stroke="#94a3b8" stroke-width="2" marker-end="url(#arrowSmall)" />
  <line x1="980" y1="425" x2="1005" y2="425" stroke="#94a3b8" stroke-width="2" marker-end="url(#arrowSmall)" />
  
  <text x="640" y="455" fill="#94a3b8" font-family="Arial" font-size="10">Drag &amp; drop components to build automation workflows</text>
  
  <!-- Key Benefits -->
  <rect x="60" y="500" width="1080" height="110" rx="8" fill="#1e3a8a" stroke="#3b82f6" stroke-width="1" />
  <text x="80" y="530" fill="#f8fafc" font-family="Arial" font-size="16" font-weight="bold">Key Benefits &amp; Features</text>
  
  <g font-family="Arial" font-size="12" fill="#bfdbfe">
    <text x="80" y="555">• 50+ pre-built automation modules</text>
    <text x="320" y="555">• Visual workflow designer</text>
    <text x="520" y="555">• 80% reduction in manual work</text>
    <text x="760" y="555">• Error handling &amp; retries</text>
    <text x="960" y="555">• Real-time monitoring</text>
    
    <text x="80" y="575">• No-code/low-code interface</text>
    <text x="320" y="575">• Comprehensive logging</text>
    <text x="520" y="575">• Scheduled &amp; event-driven</text>
    <text x="760" y="575">• Multi-tenant support</text>
    <text x="960" y="575">• REST API access</text>
    
    <text x="80" y="595">• Plugin architecture</text>
    <text x="320" y="595">• Version control integration</text>
    <text x="520" y="595">• Performance analytics</text>
    <text x="760" y="595">• Security compliance</text>
    <text x="960" y="595">• Cloud deployment</text>
  </g>
</svg>