<svg width="1200" height="630" viewBox="0 0 1200 630" xmlns="http://www.w3.org/2000/svg">
  <defs>
    <linearGradient id="bg" x1="0%" y1="0%" x2="100%" y2="100%">
      <stop offset="0%" style="stop-color:#0f0a0a;stop-opacity:1" />
      <stop offset="100%" style="stop-color:#1c1612;stop-opacity:1" />
    </linearGradient>
    <linearGradient id="rust" x1="0%" y1="0%" x2="100%" y2="100%">
      <stop offset="0%" style="stop-color:#ce422b;stop-opacity:1" />
      <stop offset="100%" style="stop-color:#a0341a;stop-opacity:1" />
    </linearGradient>
    <filter id="glow">
      <fegaussianblur stdDeviation="2" result="coloredBlur"/>
      <femerge> 
        <femergenode in="coloredBlur"/>
        <femergenode in="SourceGraphic"/>
      </femerge>
    </filter>
  </defs>
  
  <!-- Background -->
  <rect width="1200" height="630" fill="url(#bg)" />
  
  <!-- Title -->
  <text x="60" y="80" fill="#fef7ed" font-family="Arial" font-size="32" font-weight="bold">Rust Workflow Engine with MCP</text>
  <text x="60" y="110" fill="#fed7aa" font-family="Arial" font-size="16">High-performance • Memory safety • Type safety • MCP protocol support</text>
  
  <!-- Rust Logo -->
  <g transform="translate(1000, 50)">
    <rect x="0" y="0" width="80" height="80" rx="8" fill="url(#rust)" />
    <text x="20" y="55" fill="white" font-family="Arial" font-size="32" font-weight="bold">🦀</text>
  </g>
  
  <!-- Workflow Engine Architecture -->
  <text x="80" y="160" fill="#f97316" font-family="Arial" font-size="18" font-weight="bold">High-Performance Workflow Engine</text>
  
  <!-- Core Engine -->
  <rect x="80" y="180" width="200" height="120" rx="12" fill="url(#rust)" />
  <text x="155" y="210" fill="white" font-family="Arial" font-size="16" font-weight="bold">Rust Core Engine</text>
  
  <text x="100" y="230" fill="#fed7aa" font-family="Arial" font-size="11">• Zero-cost abstractions</text>
  <text x="100" y="245" fill="#fed7aa" font-family="Arial" font-size="11">• Memory safety</text>
  <text x="100" y="260" fill="#fed7aa" font-family="Arial" font-size="11">• Fearless concurrency</text>
  <text x="100" y="275" fill="#fed7aa" font-family="Arial" font-size="11">• Type safety</text>
  <text x="100" y="290" fill="#fed7aa" font-family="Arial" font-size="11">• Performance: 50x faster</text>
  
  <!-- Workflow Components -->
  <g id="workflowComponents">
    <!-- Task Scheduler -->
    <rect x="320" y="180" width="140" height="70" rx="8" fill="#1e40af" />
    <text x="375" y="205" fill="white" font-family="Arial" font-size="12" font-weight="bold">Task Scheduler</text>
    <text x="330" y="220" fill="#dbeafe" font-family="Arial" font-size="9">• Async task queue</text>
    <text x="330" y="233" fill="#dbeafe" font-family="Arial" font-size="9">• Priority handling</text>
    <text x="330" y="246" fill="#dbeafe" font-family="Arial" font-size="9">• Load balancing</text>
    
    <!-- State Manager -->
    <rect x="320" y="260" width="140" height="70" rx="8" fill="#059669" />
    <text x="375" y="285" fill="white" font-family="Arial" font-size="12" font-weight="bold">State Manager</text>
    <text x="330" y="300" fill="#d1fae5" font-family="Arial" font-size="9">• Persistent state</text>
    <text x="330" y="313" fill="#d1fae5" font-family="Arial" font-size="9">• Transaction support</text>
    <text x="330" y="326" fill="#d1fae5" font-family="Arial" font-size="9">• Recovery mechanisms</text>
    
    <!-- Event Bus -->
    <rect x="320" y="340" width="140" height="70" rx="8" fill="#7c3aed" />
    <text x="385" y="365" fill="white" font-family="Arial" font-size="12" font-weight="bold">Event Bus</text>
    <text x="330" y="380" fill="#ddd6fe" font-family="Arial" font-size="9">• Pub/sub messaging</text>
    <text x="330" y="393" fill="#ddd6fe" font-family="Arial" font-size="9">• Event sourcing</text>
    <text x="330" y="406" fill="#ddd6fe" font-family="Arial" font-size="9">• Message durability</text>
  </g>
  
  <!-- MCP Integration -->
  <rect x="500" y="180" width="200" height="230" rx="12" fill="#1f2937" stroke="#4b5563" stroke-width="2" />
  <text x="575" y="210" fill="#f9fafb" font-family="Arial" font-size="16" font-weight="bold">MCP Integration</text>
  <text x="520" y="230" fill="#d1d5db" font-family="Arial" font-size="12">Model Context Protocol</text>
  
  <!-- MCP Components -->
  <rect x="520" y="250" width="160" height="30" rx="4" fill="#374151" />
  <text x="530" y="270" fill="#fbbf24" font-family="Arial" font-size="10">Tool Discovery & Registration</text>
  
  <rect x="520" y="290" width="160" height="30" rx="4" fill="#374151" />
  <text x="530" y="310" fill="#fbbf24" font-family="Arial" font-size="10">Resource Management</text>
  
  <rect x="520" y="330" width="160" height="30" rx="4" fill="#374151" />
  <text x="530" y="350" fill="#fbbf24" font-family="Arial" font-size="10">Prompt Templates</text>
  
  <rect x="520" y="370" width="160" height="30" rx="4" fill="#374151" />
  <text x="530" y="390" fill="#fbbf24" font-family="Arial" font-size="10">WebSocket Communication</text>
  
  <!-- Performance Metrics -->
  <rect x="740" y="180" width="180" height="150" rx="8" fill="#0c1821" stroke="#1e293b" stroke-width="1" />
  <text x="810" y="205" fill="#f8fafc" font-family="Arial" font-size="14" font-weight="bold">Performance</text>
  
  <g font-family="Arial" font-size="11" fill="#94a3b8">
    <text x="755" y="225">Throughput:</text>
    <text x="760" y="240" fill="#10b981" font-weight="bold">100K+ tasks/sec</text>
    
    <text x="755" y="260">Memory Usage:</text>
    <text x="760" y="275" fill="#10b981" font-weight="bold">&lt;50MB</text>
    
    <text x="755" y="295">Latency:</text>
    <text x="760" y="310" fill="#10b981" font-weight="bold">&lt;1ms</text>
  </g>
  
  <!-- Workflow Definition -->
  <rect x="740" y="350" width="180" height="60" rx="8" fill="#7c2d12" stroke="#ea580c" stroke-width="1" />
  <text x="810" y="375" fill="#fed7aa" font-family="Arial" font-size="14" font-weight="bold">Workflow DSL</text>
  <text x="755" y="395" fill="#fdba74" font-family="Arial" font-size="10">• YAML/TOML configs</text>
  <text x="755" y="408" fill="#fdba74" font-family="Arial" font-size="10">• Type-safe definitions</text>
  
  <!-- Tool Ecosystem -->
  <text x="960" y="160" fill="#f97316" font-family="Arial" font-size="18" font-weight="bold">Tool Ecosystem</text>
  
  <g id="tools">
    <!-- File Operations -->
    <rect x="960" y="180" width="100" height="50" rx="6" fill="#3b82f6" />
    <text x="995" y="200" fill="white" font-family="Arial" font-size="10" font-weight="bold">File Tools</text>
    <text x="970" y="215" fill="#dbeafe" font-family="Arial" font-size="8">Read/Write/Move</text>
    <text x="970" y="225" fill="#dbeafe" font-family="Arial" font-size="8">Watch directories</text>
    
    <!-- Network Tools -->
    <rect x="1080" y="180" width="100" height="50" rx="6" fill="#10b981" />
    <text x="1110" y="200" fill="white" font-family="Arial" font-size="10" font-weight="bold">Network Tools</text>
    <text x="1090" y="215" fill="#d1fae5" font-family="Arial" font-size="8">HTTP requests</text>
    <text x="1090" y="225" fill="#d1fae5" font-family="Arial" font-size="8">WebSocket client</text>
    
    <!-- Database Tools -->
    <rect x="960" y="240" width="100" height="50" rx="6" fill="#8b5cf6" />
    <text x="990" y="260" fill="white" font-family="Arial" font-size="10" font-weight="bold">DB Tools</text>
    <text x="970" y="275" fill="#ede9fe" font-family="Arial" font-size="8">SQL queries</text>
    <text x="970" y="285" fill="#ede9fe" font-family="Arial" font-size="8">Connection pools</text>
    
    <!-- AI Tools -->
    <rect x="1080" y="240" width="100" height="50" rx="6" fill="#dc2626" />
    <text x="1115" y="260" fill="white" font-family="Arial" font-size="10" font-weight="bold">AI Tools</text>
    <text x="1090" y="275" fill="#fecaca" font-family="Arial" font-size="8">LLM calls</text>
    <text x="1090" y="285" fill="#fecaca" font-family="Arial" font-size="8">Embeddings</text>
    
    <!-- System Tools -->
    <rect x="960" y="300" width="100" height="50" rx="6" fill="#f59e0b" />
    <text x="990" y="320" fill="white" font-family="Arial" font-size="10" font-weight="bold">System Tools</text>
    <text x="970" y="335" fill="#fef3c7" font-family="Arial" font-size="8">Process exec</text>
    <text x="970" y="345" fill="#fef3c7" font-family="Arial" font-size="8">Environment</text>
    
    <!-- Custom Tools -->
    <rect x="1080" y="300" width="100" height="50" rx="6" fill="#6b7280" />
    <text x="1105" y="320" fill="white" font-family="Arial" font-size="10" font-weight="bold">Custom Tools</text>
    <text x="1090" y="335" fill="#f3f4f6" font-family="Arial" font-size="8">Plugin system</text>
    <text x="1090" y="345" fill="#f3f4f6" font-family="Arial" font-size="8">User defined</text>
  </g>
  
  <!-- Code Example -->
  <rect x="80" y="320" width="400" height="140" rx="8" fill="#111827" stroke="#374151" stroke-width="1" />
  <text x="100" y="345" fill="#f9fafb" font-family="Arial" font-size="14" font-weight="bold">Workflow Configuration</text>
  
  <g font-family="Consolas, monospace" font-size="10">
    <text x="100" y="365" fill="#f59e0b">[workflow]</text>
    <text x="100" y="380" fill="#10b981">name</text><text x="130" y="380" fill="#f9fafb"> = </text><text x="145" y="380" fill="#3b82f6">"data_processing"</text>
    <text x="100" y="395" fill="#10b981">version</text><text x="145" y="395" fill="#f9fafb"> = </text><text x="160" y="395" fill="#3b82f6">"1.0.0"</text>
    
    <text x="100" y="415" fill="#f59e0b">[[tasks]]</text>
    <text x="100" y="430" fill="#10b981">name</text><text x="130" y="430" fill="#f9fafb"> = </text><text x="145" y="430" fill="#3b82f6">"fetch_data"</text>
    <text x="100" y="445" fill="#10b981">tool</text><text x="125" y="445" fill="#f9fafb"> = </text><text x="140" y="445" fill="#3b82f6">"http_get"</text>
  </g>
  
  <!-- Data Flow Arrows -->
  <defs>
    <marker id="arrow" markerWidth="10" markerHeight="7" 
            refX="9" refY="3.5" orient="auto">
      <polygon points="0 0, 10 3.5, 0 7" fill="#f97316" />
    </marker>
  </defs>
  
  <line x1="280" y1="215" x2="320" y2="215" stroke="#f97316" stroke-width="2" marker-end="url(#arrow)" />
  <line x1="280" y1="295" x2="320" y2="295" stroke="#f97316" stroke-width="2" marker-end="url(#arrow)" />
  <line x1="280" y1="375" x2="320" y2="375" stroke="#f97316" stroke-width="2" marker-end="url(#arrow)" />
  
  <line x1="460" y1="240" x2="500" y2="270" stroke="#f97316" stroke-width="2" marker-end="url(#arrow)" />
  <line x1="460" y1="320" x2="500" y2="350" stroke="#f97316" stroke-width="2" marker-end="url(#arrow)" />
  <line x1="460" y1="380" x2="500" y2="380" stroke="#f97316" stroke-width="2" marker-end="url(#arrow)" />
  
  <line x1="700" y1="295" x2="740" y2="255" stroke="#f97316" stroke-width="2" marker-end="url(#arrow)" />
  <line x1="700" y1="330" x2="960" y2="250" stroke="#f97316" stroke-width="2" marker-end="url(#arrow)" />
  
  <!-- Key Features -->
  <rect x="60" y="480" width="1080" height="120" rx="8" fill="#0f0a0a" stroke="#1c1612" stroke-width="1" />
  <text x="80" y="510" fill="#fef7ed" font-family="Arial" font-size="16" font-weight="bold">Key Features &amp; Performance Characteristics</text>
  
  <g font-family="Arial" font-size="12" fill="#fed7aa">
    <text x="80" y="535">• Memory Safety: Zero buffer overflows or segfaults</text>
    <text x="420" y="535">• Concurrency: Fearless parallelism with work-stealing</text>
    <text x="780" y="535">• Performance: 50x faster than Python equivalents</text>
    
    <text x="80" y="555">• Type Safety: Compile-time error prevention</text>
    <text x="420" y="555">• MCP Native: Built-in Model Context Protocol support</text>
    <text x="780" y="555">• Resource Efficient: &lt;50MB memory footprint</text>
    
    <text x="80" y="575">• Hot Reload: Dynamic workflow updates without restart</text>
    <text x="420" y="575">• Error Recovery: Automatic task retry and circuit breakers</text>
    <text x="780" y="575">• Observability: Built-in metrics and tracing</text>
  </g>
  
  <!-- Glow effect -->
  <rect x="80" y="180" width="200" height="120" rx="12" fill="none" stroke="#f97316" stroke-width="1" opacity="0.6" filter="url(#glow)" />
</svg>